<?xml version="1.0" encoding="utf-8"?>
<!-- Generator: Adobe Illustrator 27.0.0, SVG Export Plug-In . SVG Version: 6.00 Build 0)  -->
<svg version="1.1" id="Layer_1" xmlns="http://www.w3.org/2000/svg" xmlns:xlink="http://www.w3.org/1999/xlink" x="0px" y="0px"
	 viewBox="0 0 960 720" style="enable-background:new 0 0 960 720;" xml:space="preserve">
<g>
	<defs>
		<path id="SVGID_1_" d="M819.2,151.7c-7.9-7.9-18.6-12.4-29.8-12.4H350.7L317.3,106h-23.9H195h-30c-20.2,0-36.6,16.4-36.6,36.6v39
			v5.6v384.6c0,23.3,18.9,42.2,42.2,42.2h618.8c23.3,0,42.2-18.9,42.2-42.2V181.6C831.6,170.4,827.1,159.7,819.2,151.7z"/>
	</defs>
	<clipPath id="SVGID_00000031898707670685643340000005714828445207568796_">
		<use xlink:href="#SVGID_1_"  style="overflow:visible;"/>
	</clipPath>
	
		<g transform="matrix(1 0 0 1 -6.103516e-05 7.629395e-06)" style="clip-path:url(#SVGID_00000031898707670685643340000005714828445207568796_);">
		
			<image style="overflow:visible;" width="3840" height="5760" xlink:href="concrete.jpg"  transform="matrix(8.920372e-18 0.1457 -0.1457 8.920372e-18 908.9184 86.2999)">
		</image>
	</g>
</g>
</svg>
